<svg xmlns="http://www.w3.org/2000/svg" height="40" viewBox="0 -960 960 960" width="40"><path d="M348.405-240.347 480-319.217l132.262 79.87-36.145-148.74L692.566-488.87l-152.508-13.101L480-643.001l-59.392 140.363L268.1-489.87l116.45 100.117-36.145 149.406ZM480-206.71 302.086-99.115q-14.782 8.985-29.239 8.036-14.456-.95-25.108-9.935-11.218-7.753-16.406-20.427-5.189-12.674-2.232-29.457l47.696-202.913-157.914-138.247q-11.609-9.276-15.311-23.138-3.703-13.862.34-27.645 4.232-13.217 15.123-22.348 10.891-9.13 27.573-10.463l208.377-17.899 79.986-192.479q6.42-14.507 18.855-21.899 12.435-7.391 26.174-7.391 13.739 0 26.174 7.391 12.435 7.392 18.855 21.899l80.652 192.479 208.088 17.899q16.304 1.333 27.196 10.463 10.891 9.131 15.123 22.348 4.043 13.783.34 27.645-3.702 13.862-15.311 23.138L683.203-353.811l47.696 202.913q2.957 16.783-2.232 29.457-5.188 12.674-16.406 20.427-10.652 8.986-25.108 9.935-14.457.95-28.573-8.036L480-206.71Zm0-224.768Z"/></svg>